<?xml version="1.0" standalone="no"?>
<!DOCTYPE svg PUBLIC "-//W3C//DTD SVG 20010904//EN"
 "http://www.w3.org/TR/2001/REC-SVG-20010904/DTD/svg10.dtd">
<svg version="1.0" xmlns="http://www.w3.org/2000/svg"
 width="260.000000pt" height="260.000000pt" viewBox="0 0 260.000000 260.000000"
 preserveAspectRatio="xMidYMid meet">
<metadata>
Created by potrace 1.14, written by Peter Selinger 2001-2017
</metadata>
<g transform="translate(0.000000,260.000000) scale(0.100000,-0.100000)"
fill="#000000" stroke="none">
<path d="M1201 2550 c-11 -38 -14 -40 -54 -40 l-42 -1 34 -29 c35 -30 35 -32
14 -105 -4 -16 0 -15 26 9 41 39 41 19 -1 -82 -23 -56 -46 -91 -84 -129 -48
-48 -51 -54 -34 -63 10 -5 30 -10 44 -10 14 0 26 -4 26 -9 0 -17 -72 -96 -117
-128 -50 -36 -47 -41 35 -57 l54 -11 -42 -48 c-37 -41 -47 -47 -82 -47 -21 0
-48 -5 -58 -10 -15 -8 -28 -5 -57 15 -21 13 -53 27 -71 31 -34 7 -38 14 -22
45 40 74 28 189 -27 250 -98 108 -277 86 -412 -51 -165 -167 -156 -352 30
-656 22 -37 38 -68 36 -70 -2 -2 -14 -5 -27 -6 -21 -3 -28 6 -57 77 -48 118
-61 140 -93 158 -68 40 -149 5 -194 -85 -77 -155 33 -390 211 -449 29 -9 34
-15 29 -33 -33 -113 -40 -162 -40 -281 -1 -111 2 -140 22 -198 32 -92 77 -155
136 -192 96 -59 222 -33 360 72 27 21 54 42 61 47 8 6 20 2 36 -13 92 -87 236
-85 353 4 l34 26 30 -31 c25 -24 39 -30 75 -30 75 0 117 50 172 203 17 47 28
55 54 38 11 -7 13 -27 7 -98 -8 -110 8 -272 33 -328 34 -77 109 -104 171 -63
48 32 67 76 82 193 l14 100 43 7 c25 4 60 18 80 31 61 41 225 182 272 235 52
57 104 151 114 202 9 48 -19 117 -57 140 l-29 18 24 6 c51 12 180 163 237 276
58 116 62 173 15 228 -21 25 -22 31 -11 48 36 51 27 141 -18 183 -23 21 -25
29 -20 85 4 47 1 69 -13 96 -22 42 -76 80 -115 80 -73 0 -157 -76 -204 -185
-33 -75 -37 -77 -199 -79 -95 -1 -116 -4 -155 -25 -25 -13 -53 -30 -63 -39
-16 -14 -20 -13 -45 10 -46 44 -86 58 -160 58 -38 0 -89 -7 -113 -15 -44 -16
-44 -16 -67 12 -47 58 -47 60 13 68 77 9 84 24 29 59 -41 26 -114 107 -114
127 0 5 12 9 28 9 15 0 34 5 42 10 12 8 9 15 -21 42 -45 42 -80 97 -107 171
-27 72 -28 85 -2 62 27 -24 32 -17 19 28 -9 34 -8 38 23 66 l33 30 -42 1 c-41
0 -43 1 -53 40 -6 22 -12 40 -14 40 -1 0 -8 -18 -15 -40z m-524 -474 c28 -33
29 -76 4 -131 -19 -41 -63 -88 -93 -98 -25 -9 -23 -6 22 41 63 67 65 142 3
142 -36 0 -117 -47 -143 -82 -45 -61 -40 -91 40 -213 40 -60 85 -137 101 -170
27 -58 53 -155 43 -165 -3 -2 -31 -14 -62 -26 -31 -12 -64 -24 -72 -28 -12 -5
-15 2 -15 32 -1 28 -16 61 -60 132 -146 237 -166 369 -71 484 69 85 134 118
220 113 50 -3 63 -8 83 -31z m1741 -100 c3 -25 -6 -68 -34 -168 -4 -14 3 -17
43 -20 38 -2 49 -7 51 -22 5 -27 -22 -45 -79 -52 l-47 -6 -40 -167 c-63 -254
-60 -285 19 -214 45 41 136 171 145 210 7 27 24 31 24 6 -1 -47 -92 -196 -166
-270 -34 -33 -51 -43 -77 -43 -64 0 -107 57 -107 141 l0 42 -48 -50 c-27 -28
-75 -68 -107 -89 -54 -36 -63 -39 -131 -39 -67 0 -75 2 -103 30 -17 16 -39 46
-48 66 l-16 38 -49 -44 c-129 -116 -274 -128 -334 -26 -15 26 -25 31 -56 31
-38 0 -61 15 -83 55 -9 16 -20 6 -79 -74 -104 -139 -128 -141 -142 -13 -9 93
-16 100 -43 52 -24 -43 -32 -47 -49 -27 -7 8 1 30 29 76 l39 65 0 112 c0 123
8 142 55 130 56 -14 89 -130 78 -274 -3 -45 -3 -82 0 -82 4 0 25 25 48 57 l42
56 2 116 c1 126 15 174 51 179 32 5 57 -32 62 -92 4 -45 -1 -67 -33 -140 l-37
-86 19 -33 c11 -17 28 -33 40 -35 19 -3 21 3 25 71 8 118 76 239 160 283 49
25 122 36 167 24 75 -20 99 -86 66 -181 -30 -83 -107 -154 -197 -181 -29 -9
-38 -16 -38 -34 0 -43 10 -54 51 -54 54 0 100 21 153 70 37 34 46 50 52 88 23
159 110 264 243 293 73 15 132 -6 156 -57 46 -97 -57 -258 -190 -300 -57 -18
-62 -25 -45 -68 19 -51 122 -28 205 45 70 62 93 101 114 195 10 49 22 101 26
117 7 25 5 27 -23 27 -49 0 -63 9 -52 31 7 12 26 21 51 25 40 7 42 8 83 98 45
97 92 149 130 144 15 -2 22 -11 24 -32z m-1603 -248 c38 -34 48 -92 40 -246
-4 -73 -10 -131 -14 -130 -3 2 -29 12 -57 22 l-50 19 -13 168 c-7 93 -10 173
-6 179 11 19 73 11 100 -12z m-647 -232 c-48 -36 -42 -118 13 -181 38 -42 85
-59 171 -58 l67 0 -37 -43 c-39 -47 -52 -51 -113 -32 -86 25 -157 116 -165
212 -6 62 21 116 58 116 21 -1 22 -2 6 -14z m601 -210 c39 -21 56 -60 55 -128
-3 -134 -127 -255 -215 -208 -29 16 -23 31 8 19 21 -8 35 -5 72 13 88 44 137
177 84 229 -22 22 -22 22 -63 4 -95 -43 -213 -221 -241 -363 -14 -73 -6 -195
15 -246 42 -100 145 -86 273 37 55 52 63 65 63 96 0 20 6 60 13 89 37 139 180
235 259 173 13 -11 37 -23 51 -26 56 -14 97 -93 97 -186 0 -146 -114 -279
-240 -279 -51 0 -112 42 -139 95 -14 28 -26 51 -26 52 -1 1 -35 -31 -77 -72
-99 -95 -205 -150 -272 -143 -58 7 -89 27 -120 81 -41 69 -59 159 -53 258 10
152 50 269 130 374 98 131 227 182 326 131z m1090 -198 c8 -24 7 -48 -2 -89
l-14 -56 61 62 c49 50 69 64 103 69 103 18 147 -68 108 -214 -8 -30 -12 -56
-9 -59 6 -7 100 94 137 148 17 25 32 40 34 34 8 -24 -51 -118 -110 -177 -68
-67 -199 -176 -234 -195 -28 -14 -76 -14 -91 1 -23 23 -12 49 48 106 75 74
124 172 125 251 0 33 -5 56 -12 58 -17 6 -97 -71 -126 -120 -52 -88 -82 -222
-122 -537 -9 -68 -20 -90 -45 -90 -38 0 -52 63 -51 235 0 66 5 154 10 195 5
41 8 76 7 78 -2 1 -15 -2 -30 -8 -41 -15 -90 11 -115 62 l-20 41 -48 -99 c-26
-55 -56 -122 -65 -149 -19 -54 -53 -98 -71 -92 -26 8 -39 80 -33 187 11 228
86 375 163 325 23 -15 25 -22 20 -68 -2 -29 -7 -61 -11 -72 -4 -11 11 15 33
57 23 43 50 82 60 88 64 34 113 -27 91 -110 -14 -52 -47 -71 -84 -47 l-24 16
9 -32 c5 -17 9 -33 9 -34 0 -11 49 -43 66 -43 38 0 62 31 83 110 27 103 55
165 82 184 36 25 56 20 68 -16z"/>
<path d="M1575 1671 c-59 -37 -116 -124 -130 -203 l-7 -37 29 8 c53 15 90 40
127 83 49 57 70 130 44 156 -16 16 -28 15 -63 -7z"/>
<path d="M2005 1679 c-66 -37 -145 -158 -145 -221 l0 -27 40 14 c94 33 164
120 158 197 -3 46 -18 56 -53 37z"/>
<path d="M1083 918 c-6 -7 -20 -32 -32 -55 -12 -24 -24 -43 -27 -43 -4 0 -4
19 0 42 6 37 5 40 -9 28 -56 -47 -92 -171 -75 -257 19 -90 52 -92 109 -7 48
72 73 150 75 229 1 56 -2 70 -15 73 -9 1 -21 -3 -26 -10z"/>
</g>
</svg>
